<?xml version="1.0" standalone="no"?>
<!DOCTYPE svg PUBLIC "-//W3C//DTD SVG 20010904//EN"
 "http://www.w3.org/TR/2001/REC-SVG-20010904/DTD/svg10.dtd">
<svg version="1.0" xmlns="http://www.w3.org/2000/svg"
 width="1200.000000pt" height="667.000000pt" viewBox="0 0 1200.000000 667.000000"
 preserveAspectRatio="xMidYMid meet">

<g transform="translate(0.000000,667.000000) scale(0.100000,-0.100000)"
fill="#000000" stroke="none">
<path d="M0 3335 l0 -3335 6000 0 6000 0 0 3335 0 3335 -6000 0 -6000 0 0
-3335z m8737 860 c18 -13 22 -13 33 0 24 29 90 10 90 -25 0 -29 49 -39 66 -14
26 37 35 44 60 44 13 0 27 -7 29 -15 16 -51 17 -51 25 -30 12 33 36 47 72 43
24 -2 34 -9 36 -23 5 -30 31 -45 79 -45 73 0 131 -19 153 -51 11 -15 37 -33
58 -39 79 -26 82 -30 82 -131 0 -107 -17 -146 -53 -126 -12 7 -30 18 -39 26
-14 11 -21 11 -33 1 -8 -7 -12 -16 -9 -21 3 -5 -1 -6 -9 -3 -9 3 -13 13 -10
24 3 12 -3 22 -17 30 -35 19 -50 -5 -53 -84 l-2 -68 98 -63 c114 -72 149 -103
185 -165 24 -40 27 -55 26 -130 -1 -119 -26 -182 -104 -253 -33 -31 -87 -69
-122 -85 -35 -16 -72 -39 -82 -51 -21 -23 -53 -20 -96 10 -14 10 -41 20 -60
23 -78 13 -100 19 -100 26 0 5 8 11 18 14 11 3 8 5 -8 4 -58 -1 -71 3 -97 32
-33 38 -53 38 -82 -1 -19 -25 -27 -30 -49 -24 -15 4 -34 13 -43 21 -14 12 -18
12 -34 -6 -24 -27 -61 -19 -95 19 -15 16 -48 34 -81 44 -31 10 -68 28 -83 42
-22 21 -26 32 -26 82 0 76 8 101 33 109 15 5 27 -1 46 -25 31 -37 48 -40 53
-8 2 12 13 26 26 32 16 7 22 18 22 41 0 20 6 34 16 38 18 7 63 -2 82 -17 10
-8 16 -7 22 3 13 21 7 25 -62 44 -212 60 -277 99 -326 196 -32 62 -33 69 -30
155 3 76 8 98 33 144 26 47 117 141 137 141 4 0 32 12 63 26 40 19 55 32 55
47 0 49 62 74 107 42z m-4138 -165 c23 0 48 -29 53 -60 3 -23 9 -26 63 -31 83
-8 144 -29 157 -53 13 -23 4 -184 -11 -199 -17 -17 -58 2 -79 37 -22 36 -105
92 -122 81 -5 -3 -10 -44 -10 -91 0 -72 4 -90 24 -122 28 -45 36 -52 101 -87
80 -44 119 -80 151 -137 27 -50 29 -59 29 -168 0 -110 -1 -117 -30 -163 -33
-52 -126 -114 -220 -147 -34 -11 -54 -26 -65 -45 -10 -19 -28 -32 -50 -38 -32
-8 -37 -6 -65 27 -24 29 -41 38 -85 47 -47 9 -63 8 -110 -8 -42 -15 -56 -25
-60 -44 -4 -18 -13 -25 -38 -27 -28 -3 -32 0 -32 21 0 26 -16 37 -53 37 -12 0
-50 10 -85 22 l-63 22 7 65 c9 88 18 115 37 119 9 2 22 -9 31 -26 17 -32 83
-92 102 -92 17 0 24 24 24 77 0 37 -5 50 -31 74 -27 25 -30 34 -27 75 l3 47
-60 33 c-33 18 -77 46 -97 63 -20 17 -38 31 -40 31 -2 0 -3 -44 -3 -98 -1 -87
-4 -104 -32 -163 -20 -44 -48 -82 -84 -115 -29 -27 -70 -65 -91 -86 l-38 -36
1 -144 c2 -237 -33 -312 -191 -409 -28 -17 -50 -34 -50 -38 0 -3 -15 -22 -33
-41 -19 -19 -39 -44 -44 -55 -12 -23 -4 -97 26 -235 11 -52 21 -105 21 -117 0
-12 8 -29 17 -38 21 -22 89 -14 109 12 14 17 15 17 29 -2 25 -32 29 -63 14
-118 -11 -42 -19 -53 -38 -55 -13 -2 -28 1 -34 7 -18 18 -30 13 -68 -23 -21
-21 -41 -55 -52 -88 -10 -33 -30 -67 -52 -88 -19 -19 -35 -39 -35 -46 0 -7 -9
-16 -20 -19 -11 -3 -20 -11 -20 -16 0 -39 -114 49 -150 117 -20 37 -37 41 -52
9 -8 -18 -18 -25 -32 -23 -36 5 -50 81 -50 273 -1 122 -6 198 -20 271 -17 91
-18 105 -4 145 16 48 7 127 -15 134 -7 2 -38 11 -70 20 -31 9 -61 24 -66 34
-12 22 15 171 36 191 13 13 17 12 36 -15 28 -37 76 -85 88 -85 17 0 29 40 36
115 6 79 10 83 57 66 21 -8 26 -19 31 -66 4 -31 15 -63 23 -72 15 -15 17 -13
29 15 7 17 22 33 33 37 28 9 26 50 -5 81 -29 29 -89 56 -165 74 -144 34 -276
138 -300 238 -15 63 -7 160 18 214 36 80 129 154 227 183 36 11 40 16 43 49 3
28 7 36 23 36 29 0 59 -18 59 -35 0 -9 6 -12 15 -9 8 4 15 17 15 30 0 13 15
38 36 58 30 29 40 34 55 25 24 -13 33 6 27 59 -8 56 10 160 36 217 39 85 102
134 249 194 28 11 31 15 41 64 6 23 11 27 42 27 30 0 37 -4 49 -34 13 -31 19
-35 67 -41 68 -9 126 -33 138 -55 17 -32 23 -173 8 -193 -18 -24 -42 -14 -69
29 -26 43 -102 96 -124 88 -14 -6 -16 -19 -10 -104 7 -93 6 -98 -15 -113 -25
-17 -19 -37 10 -37 30 0 127 -46 180 -85 26 -19 49 -35 51 -35 2 0 4 42 4 93
1 109 16 149 95 242 28 33 55 76 61 97 5 20 14 40 19 43 6 4 6 -4 0 -20 -6
-15 -10 -28 -10 -31 0 -9 39 -3 46 7 3 6 16 8 27 5 12 -3 32 -3 45 1 19 4 22
10 18 32 -9 38 5 52 42 45 27 -6 32 -11 32 -36 0 -33 19 -44 49 -28 16 8 21
21 23 58 1 47 1 47 5 7 6 -63 47 -80 134 -53 33 9 40 16 45 45 3 18 4 42 1 53
-3 11 -2 18 3 15 4 -2 16 5 26 16 16 18 19 19 22 5 2 -9 11 -16 21 -16z m899
-125 c5 -38 16 -45 77 -45 28 -1 75 -9 105 -18 64 -20 66 -28 55 -149 -6 -63
-9 -73 -26 -73 -10 0 -37 20 -60 45 -49 53 -104 89 -124 81 -12 -4 -15 -27
-15 -109 0 -115 -10 -139 -50 -117 -11 6 -25 8 -31 5 -20 -13 12 -33 84 -55
137 -42 230 -106 283 -195 21 -37 26 -58 27 -122 0 -93 -13 -140 -61 -209 -42
-60 -105 -106 -179 -129 -45 -15 -91 -45 -68 -45 5 0 0 -9 -10 -20 -24 -27
-73 -26 -102 2 -22 21 -93 36 -93 20 1 -4 35 -24 78 -44 97 -46 190 -121 221
-177 46 -83 39 -235 -16 -318 -13 -21 -65 -67 -113 -102 -55 -39 -87 -68 -82
-75 15 -24 27 -73 24 -102 -3 -27 -8 -33 -32 -36 -17 -3 -28 -2 -25 0 3 3 -3
11 -12 17 -13 10 -15 16 -6 26 12 16 23 80 12 73 -4 -2 -10 4 -12 13 -3 11 -5
8 -6 -9 -1 -27 -3 -28 -51 -28 l-50 0 4 -74 c5 -91 24 -150 43 -134 7 6 13 17
13 25 0 17 58 75 69 69 17 -11 95 -177 86 -184 -6 -4 -12 -40 -14 -79 -2 -56
0 -73 10 -73 10 0 10 -3 3 -8 -6 -4 -14 -23 -18 -42 -9 -52 -12 -200 -3 -200
4 0 7 -4 7 -9 0 -4 -12 -8 -27 -7 -31 1 -56 37 -50 74 2 12 1 22 -3 22 -4 0
-6 56 -4 124 2 100 -1 126 -12 130 -8 3 -14 10 -14 15 0 6 -13 24 -30 41 -25
26 -32 29 -53 19 -17 -8 -23 -17 -21 -33 2 -11 2 -16 -1 -10 -3 6 -17 9 -31 6
-40 -7 -83 51 -89 121 -2 23 -6 67 -9 97 -3 31 -1 72 5 93 8 30 15 37 34 37
14 0 25 4 25 9 0 5 9 7 20 4 11 -3 20 0 20 6 0 6 -7 11 -15 11 -8 0 -15 4 -15
10 0 5 -26 22 -57 37 l-58 28 1 55 c1 117 30 171 64 118 24 -39 80 -88 100
-88 25 0 30 19 30 111 0 85 3 89 53 70 23 -9 26 -17 32 -96 5 -61 12 -88 22
-92 19 -8 91 26 109 51 21 30 18 89 -7 120 -29 36 -57 49 -200 91 -144 42
-225 84 -268 139 -42 53 -65 135 -58 205 15 140 66 204 226 287 30 15 39 24
26 24 -14 0 -27 15 -42 48 -25 53 -22 92 8 92 11 0 19 4 19 9 0 10 -30 25 -43
22 -5 -1 -6 3 -2 9 8 13 -14 42 -25 35 -11 -7 -31 52 -24 70 4 8 0 17 -8 20
-28 11 -6 112 41 195 58 102 82 125 181 172 47 22 92 44 100 48 8 4 16 22 18
41 4 40 16 50 57 47 25 -3 31 -8 33 -33z m4452 -241 c0 -17 24 -24 79 -24 48
0 108 -15 126 -32 13 -11 7 -199 -7 -215 -17 -21 -28 -15 -77 38 -25 28 -59
58 -74 66 -50 25 -57 14 -57 -91 0 -85 -2 -96 -20 -106 -31 -17 -24 -27 33
-46 133 -43 239 -122 277 -207 25 -53 26 -167 4 -234 -9 -26 -33 -72 -52 -102
l-36 -54 -1 -161 0 -161 33 -65 c18 -35 37 -93 43 -129 9 -57 5 -249 -6 -336
-3 -16 -9 -122 -16 -235 -6 -112 -13 -209 -16 -214 -3 -5 -9 -36 -13 -70 -10
-88 -28 -153 -58 -215 -28 -58 -52 -77 -52 -43 0 14 -8 22 -22 24 -13 2 -29
15 -36 31 -14 28 -43 36 -59 15 -6 -7 -15 -35 -21 -63 -20 -95 -35 -140 -51
-157 -19 -20 -35 -26 -39 -16 -66 182 -80 208 -107 208 -7 0 -20 9 -30 20 -34
38 -45 194 -51 715 -6 526 -4 568 46 665 26 51 37 56 64 31 43 -40 66 -23 66
49 0 27 -10 53 -36 91 -57 84 -99 179 -87 197 20 33 47 20 94 -49 10 -15 21
-20 32 -16 14 5 17 20 17 75 0 77 11 95 51 85 37 -9 49 -23 49 -54 0 -33 31
-57 72 -57 47 1 48 52 2 83 -25 16 -164 65 -187 65 -29 0 -135 60 -161 91 -28
33 -28 36 -23 119 3 47 13 112 22 145 25 97 90 223 139 269 24 23 47 52 51 65
4 13 21 29 38 36 28 12 34 12 45 -2 6 -9 12 -22 12 -29z m-2927 -151 c3 -5 1
-17 -4 -28 -6 -17 -8 -17 -8 -2 -1 26 -39 22 -44 -5 -3 -18 -5 -16 -6 7 -1 27
2 31 28 33 16 1 32 -1 34 -5z m1151 -77 c7 -65 -4 -101 -33 -103 -12 -1 -21 3
-21 8 0 6 -7 17 -15 25 -13 13 -12 20 2 57 15 38 38 66 54 67 3 0 9 -24 13
-54z m-987 -8 c23 -9 25 -12 10 -15 -13 -3 -15 -8 -8 -17 10 -12 18 -102 10
-110 -2 -2 -35 16 -72 42 -37 25 -64 48 -60 51 17 12 11 41 -8 41 -10 0 -19 5
-19 10 0 14 112 13 147 -2z m-267 -21 c-35 -16 -35 -16 -15 -30 17 -13 15 -16
-25 -48 -51 -41 -61 -64 -50 -114 10 -45 18 -54 56 -61 16 -3 31 -10 33 -15
10 -29 31 53 32 125 l2 81 10 -57 c6 -35 15 -58 23 -58 7 0 15 -6 17 -12 3 -7
6 11 6 40 1 33 5 51 11 47 6 -3 10 -32 10 -63 0 -31 7 -70 15 -86 19 -35 19
-33 -4 -46 -14 -7 -27 -6 -48 5 -37 20 -42 19 -36 -5 3 -11 16 -22 29 -25 13
-3 35 -7 49 -10 32 -7 214 -117 242 -147 49 -53 73 -117 73 -194 0 -40 -6 -86
-12 -101 -48 -109 -127 -183 -228 -214 -55 -16 -69 -25 -72 -42 -2 -17 -11
-23 -40 -25 -36 -3 -38 -2 -38 27 0 39 -11 44 -72 36 l-50 -7 7 -37 c16 -76
14 -222 -3 -261 -33 -75 -173 -167 -265 -176 -41 -4 -41 -4 -10 6 40 13 58 36
21 27 -22 -6 -25 -3 -25 17 0 19 8 28 44 41 58 23 86 65 78 120 -8 49 -77 117
-145 141 -25 9 -58 21 -75 27 l-29 11 24 7 c14 4 20 7 14 8 -6 1 -9 12 -6 26
2 14 0 25 -6 25 -6 0 -14 20 -17 45 -4 24 -13 50 -21 56 -8 6 -14 9 -14 7 0
-3 -17 10 -37 29 -30 29 -35 38 -26 52 9 14 7 21 -8 32 -10 7 -19 20 -19 29 0
9 3 11 8 5 18 -26 75 -51 174 -76 59 -16 134 -42 168 -59 33 -17 65 -28 70
-25 13 8 13 52 -1 60 -5 4 -9 19 -7 33 3 24 -1 27 -27 28 -47 2 -48 2 -79 40
l-29 37 26 -5 c19 -4 27 -1 27 8 0 12 4 12 22 2 13 -7 30 -21 39 -30 9 -10 19
-15 22 -12 3 3 13 7 24 9 10 2 18 4 18 5 0 10 41 5 52 -6 21 -21 28 -18 61 22
17 20 35 33 41 30 7 -4 9 -1 5 8 -8 21 30 30 71 16 38 -13 43 -27 48 -139 2
-71 14 -84 46 -52 12 12 26 21 33 21 24 0 58 43 58 73 0 67 -70 129 -175 156
-98 24 -170 43 -199 52 -43 13 -48 12 -44 -18 2 -17 12 -32 26 -38 30 -13 32
-70 2 -78 -10 -3 -21 0 -23 7 -3 8 -9 7 -21 -3 -14 -12 -22 -8 -64 36 -26 28
-57 55 -69 62 -20 10 -23 9 -23 -8 0 -11 -4 -22 -9 -25 -11 -7 -21 17 -21 50
0 14 -5 23 -12 22 -28 -6 -29 -178 -2 -178 9 0 14 11 14 27 0 33 17 19 20 -17
4 -50 2 -55 -18 -37 -20 18 -47 23 -37 8 10 -17 -14 -22 -46 -8 l-32 13 -4 89
c-3 56 -10 99 -20 113 -14 23 -15 23 -28 5 -7 -10 -17 -15 -21 -10 -4 4 -2 7
4 7 7 0 12 9 12 19 0 11 6 22 13 25 6 3 -1 4 -18 1 -26 -4 -24 -2 12 15 41 18
59 46 51 80 -3 16 69 33 78 18 7 -11 64 23 64 39 0 6 9 27 19 45 10 18 22 51
26 73 4 21 15 56 26 76 18 36 92 114 127 133 21 12 102 34 127 34 17 1 16 -1
-5 -11z m337 -19 c-3 -8 -6 -5 -6 6 -1 11 2 17 5 13 3 -3 4 -12 1 -19z m3551
-24 c12 -4 24 -16 27 -28 8 -35 -9 -189 -21 -193 -6 -2 -35 21 -64 51 -51 53
-102 78 -120 60 -5 -5 -12 -52 -17 -104 -7 -89 -10 -95 -31 -98 -45 -7 -55 15
-48 98 7 79 22 111 87 184 30 35 34 36 98 36 36 0 76 -3 89 -6z m-2866 -32 c6
-22 -8 -62 -21 -62 -14 0 -18 42 -6 63 13 22 21 22 27 -1z m-682 -87 c0 -16
-6 -25 -15 -25 -18 0 -19 4 -3 30 16 26 18 25 18 -5z m686 -7 c4 -13 7 -36 6
-53 -1 -16 1 -35 6 -40 10 -15 107 -75 120 -75 6 0 27 -9 47 -20 19 -11 35
-16 35 -11 0 16 58 4 91 -20 25 -18 30 -25 17 -27 -9 -2 -19 -14 -22 -28 -6
-24 -30 -33 -40 -15 -3 5 -27 8 -53 8 -50 0 -221 56 -235 77 -4 6 -7 22 -7 36
0 14 3 19 6 13 7 -18 23 -16 23 2 0 8 -5 15 -12 15 -30 0 -45 30 -40 83 2 28
9 58 14 65 16 19 36 14 44 -10z m-5859 -126 c27 -41 32 -59 38 -139 6 -75 5
-93 -6 -93 -28 0 -37 17 -44 85 -9 88 -18 105 -55 105 -37 0 -76 -54 -86 -119
-5 -33 -9 -39 -16 -27 -5 9 -27 19 -48 22 -22 4 -40 11 -40 17 0 23 -20 -9
-29 -48 -10 -38 -10 -38 -5 14 6 62 30 115 69 151 32 30 154 88 175 83 8 -3
29 -25 47 -51z m8518 -107 c121 -43 169 -69 225 -121 70 -65 94 -128 87 -224
-10 -145 -82 -245 -209 -292 -38 -13 -63 -29 -66 -40 -9 -36 -38 -18 -85 54
-51 78 -56 98 -31 119 13 11 15 26 9 84 -7 79 3 99 44 88 28 -7 41 -40 41
-103 0 -68 14 -100 43 -100 64 0 106 84 73 145 -22 41 -68 66 -179 100 -49 15
-97 35 -108 46 -23 23 -24 80 -4 193 14 80 27 101 55 89 8 -3 56 -20 105 -38z
m-8655 -126 c0 -6 -4 -7 -10 -4 -5 3 -10 11 -10 16 0 6 5 7 10 4 6 -3 10 -11
10 -16z m6270 1 c14 -3 25 -13 25 -21 0 -8 -7 -12 -15 -10 -8 2 -36 8 -62 14
-59 12 -68 39 -10 30 20 -4 48 -9 62 -13z m-6105 -79 c95 -28 131 -51 139 -91
10 -50 7 -158 -4 -165 -6 -4 -7 -12 -1 -22 4 -9 6 -24 4 -34 -5 -17 -7 -17
-37 5 -17 13 -47 28 -66 34 -100 29 -208 67 -231 81 -30 18 -99 97 -99 113 0
6 8 0 18 -12 16 -20 52 -20 52 1 0 4 -7 5 -17 2 -11 -4 -14 -3 -9 6 5 7 15 10
23 7 21 -9 38 4 22 16 -11 8 -11 9 1 5 8 -2 23 3 33 11 12 11 21 13 25 6 4 -6
22 -14 41 -18 19 -3 44 -14 54 -24 19 -16 20 -16 15 10 -3 17 -1 25 5 21 6 -4
8 0 4 11 -6 14 -3 16 16 11 12 -3 -9 10 -48 30 -38 20 -77 43 -85 51 -8 8 5 4
30 -10 25 -13 77 -34 115 -45z m-310 -7 c9 -50 0 -53 -13 -4 -5 22 -6 40 -2
40 4 0 11 -16 15 -36z m6420 -14 c-3 -5 -10 -10 -16 -10 -5 0 -9 5 -9 10 0 6
7 10 16 10 8 0 12 -4 9 -10z m-3644 -107 c24 -52 28 -124 14 -230 -10 -80 3
-100 81 -132 78 -32 108 -53 149 -109 19 -26 39 -52 43 -57 5 -6 12 -24 16
-40 22 -94 25 -134 14 -215 -6 -47 -11 -206 -12 -355 -2 -231 -4 -280 -21
-340 -10 -38 -23 -73 -28 -76 -5 -3 -9 -10 -9 -15 -1 -16 -32 -74 -39 -74 -4
0 -10 -14 -14 -30 -6 -28 -25 -43 -25 -19 0 6 -9 9 -20 6 -11 -3 -18 -1 -15 3
3 5 -1 10 -7 13 -21 7 -86 -53 -107 -98 -11 -24 -30 -50 -42 -59 -21 -14 -26
-14 -62 7 -22 12 -43 32 -48 44 -6 17 -16 21 -53 21 -37 0 -50 5 -70 29 -27
30 -56 103 -56 139 0 30 -35 118 -60 152 -19 26 -21 47 -26 390 -4 310 -3 371
10 416 12 41 15 92 13 207 -2 178 4 202 69 266 60 59 83 59 111 3 12 -25 22
-54 22 -65 -3 -77 8 -100 44 -91 36 9 48 53 41 151 -5 53 -2 101 5 131 23 89
50 97 82 27z m3633 14 c30 -22 34 -134 11 -282 -21 -140 -21 -282 2 -333 18
-44 39 -59 90 -66 46 -6 131 -78 178 -150 20 -31 21 -130 2 -191 -14 -47 -75
-142 -96 -150 -21 -8 -54 33 -67 82 -7 28 -8 61 -1 102 9 56 8 63 -14 96 -27
39 -55 53 -73 36 -7 -8 -12 -63 -13 -154 -2 -146 -6 -194 -24 -260 -9 -34 -13
-38 -37 -35 -23 3 -30 12 -46 58 -11 30 -21 57 -22 59 -6 7 -59 -16 -56 -25 2
-5 -7 -12 -20 -15 -66 -16 -96 49 -83 184 14 156 14 172 -1 191 -7 11 -17 17
-20 13 -6 -6 -46 33 -70 69 -19 27 -23 99 -13 203 l9 85 59 56 c32 31 60 63
63 70 6 19 28 3 28 -21 0 -11 8 -36 17 -57 9 -20 18 -50 20 -66 4 -35 39 -76
64 -76 28 0 42 63 41 180 -1 126 -10 168 -40 188 -20 13 -22 13 -28 -4 -15
-50 -57 -81 -94 -69 -24 7 -26 37 -5 55 8 7 15 22 15 35 0 22 32 60 42 49 11
-10 66 25 73 46 3 11 11 20 16 20 8 0 31 43 33 63 1 8 26 27 37 27 3 0 13 -6
23 -13z m-3424 -24 c20 -26 22 -35 16 -113 -8 -107 -22 -126 -63 -82 -26 29
-28 37 -28 114 0 46 4 89 8 96 13 20 44 14 67 -15z m-2672 -202 c8 -5 15 -41
19 -99 6 -91 14 -107 41 -80 37 37 9 -58 -30 -99 -11 -12 -26 -33 -32 -45 -16
-31 -56 -37 -56 -8 0 23 -2 24 -82 40 -32 6 -67 19 -78 28 -20 16 -20 21 -9
100 13 87 32 115 53 77 26 -44 80 -95 101 -95 30 0 35 16 35 111 0 80 6 91 38
70z m5009 -153 c-3 -8 -6 -5 -6 6 -1 11 2 17 5 13 3 -3 4 -12 1 -19z m2158
-18 c11 -12 16 -29 12 -46 -3 -18 3 -38 19 -62 13 -19 24 -49 24 -67 0 -30 4
-34 36 -42 31 -7 38 -15 60 -68 77 -183 99 -353 91 -707 -5 -235 -15 -344 -37
-393 -4 -11 -11 -33 -15 -50 -3 -16 -19 -57 -34 -90 -28 -58 -40 -88 -41 -103
-1 -4 -8 -17 -15 -29 -28 -42 -66 -113 -60 -113 3 0 -5 -10 -17 -23 -22 -21
-120 -67 -145 -67 -7 0 -33 -11 -59 -25 -26 -14 -56 -25 -68 -25 -11 0 -48 18
-81 41 -48 32 -67 54 -97 109 -47 85 -56 136 -34 179 9 17 14 36 11 41 -11 18
-33 256 -36 400 -2 80 -3 237 -3 350 1 188 2 208 21 240 11 19 30 73 42 120
21 79 44 137 74 185 32 52 90 114 119 128 28 14 34 14 55 0 21 -14 23 -14 30
3 7 18 35 65 68 112 20 27 56 29 80 2z m-1795 -102 c7 -35 13 -66 12 -71 -1
-4 10 -5 25 -3 43 8 70 -3 83 -35 7 -16 16 -29 21 -29 5 0 9 -9 9 -19 0 -11 4
-22 8 -25 5 -3 7 -19 4 -36 -3 -18 0 -30 7 -30 11 0 30 -38 35 -68 1 -8 7 -17
12 -20 6 -4 13 -15 17 -25 9 -23 27 -12 27 16 0 12 9 28 20 35 17 10 20 9 25
-11 26 -110 21 -267 -11 -314 -14 -21 -19 -24 -22 -12 -1 9 -13 22 -26 29 -19
10 -29 9 -56 -5 -18 -9 -39 -13 -48 -9 -10 4 -20 6 -24 6 -5 -1 -8 3 -8 9 0 5
-4 8 -9 5 -12 -8 -31 40 -31 79 0 47 14 80 50 115 24 23 30 37 28 64 -2 28 -7
35 -28 40 -15 2 -45 23 -67 45 -29 27 -48 38 -61 34 -15 -4 -21 2 -26 29 -7
29 -9 31 -16 13 -13 -29 -2 162 11 213 6 23 15 42 18 42 4 0 13 -28 21 -62z
m-964 28 c1 -1 4 -50 7 -109 5 -82 3 -107 -6 -104 -8 2 -13 36 -15 99 -2 85
-5 96 -22 101 -17 4 -19 -2 -23 -67 l-3 -71 -2 82 -2 83 33 -7 c17 -3 33 -6
33 -7z m731 -86 c4 -8 7 -17 8 -20 1 -3 5 -13 9 -22 14 -32 1 -40 -26 -15 -26
24 -28 39 -11 87 5 13 6 13 10 0 3 -8 7 -22 10 -30z m180 -202 c-3 -8 -6 -5
-6 6 -1 11 2 17 5 13 3 -3 4 -12 1 -19z m-911 -65 c-10 -10 -19 5 -10 18 6 11
8 11 12 0 2 -7 1 -15 -2 -18z"/>
<path d="M3506 3802 c-19 -21 -33 -102 -18 -102 24 0 40 13 35 27 -4 9 1 19
10 25 21 11 22 54 3 61 -8 3 -21 -2 -30 -11z"/>
<path d="M4508 3767 c-3 -13 -1 -32 3 -43 5 -13 8 -7 8 24 1 46 -4 55 -11 19z"/>
<path d="M3503 3662 c-15 -10 -4 -27 23 -36 19 -6 21 -3 16 19 -4 25 -17 31
-39 17z"/>
<path d="M2938 3192 c-47 -34 -69 -92 -46 -119 8 -10 18 -26 21 -36 7 -17 52
-42 92 -49 16 -2 19 2 17 22 -2 14 -7 65 -10 115 -8 103 -16 110 -74 67z"/>
<path d="M4664 3118 c3 -91 10 -97 51 -50 34 38 32 74 -6 106 -17 14 -35 26
-39 26 -5 0 -8 -37 -6 -82z"/>
<path d="M4292 3065 c-15 -32 -16 -92 -2 -100 31 -19 55 59 27 87 -8 7 -12 19
-9 26 7 22 -5 13 -16 -13z"/>
<path d="M3529 2523 c-6 -15 -13 -43 -16 -62 -5 -26 -3 -33 8 -29 30 10 53 98
29 113 -6 3 -15 -6 -21 -22z"/>
<path d="M5330 3697 c-9 -7 -22 -31 -29 -55 -10 -38 -10 -47 4 -68 21 -32 43
-30 48 4 l4 27 2 -26 c1 -30 25 -56 36 -39 3 5 2 10 -4 10 -6 0 -8 19 -5 48 6
62 5 92 -2 103 -7 13 -36 11 -54 -4z"/>
<path d="M5150 3246 c0 -7 13 -16 29 -19 18 -4 32 -14 36 -27 6 -20 8 -20 24
-6 10 9 28 16 42 16 22 0 21 2 -11 22 -42 25 -120 35 -120 14z"/>
<path d="M5586 3027 c-9 -19 -16 -42 -16 -51 0 -24 29 -8 46 26 14 27 14 32 1
45 -12 13 -16 10 -31 -20z"/>
<path d="M5149 2982 c-24 -21 -32 -38 -36 -75 -6 -51 14 -97 44 -97 9 0 41
-12 71 -26 35 -17 58 -22 64 -16 10 10 -26 42 -47 42 -17 0 -75 58 -75 75 0 9
10 33 22 54 21 36 20 71 -2 71 -5 0 -24 -13 -41 -28z"/>
<path d="M5594 2528 c3 -11 1 -15 -8 -12 -17 7 -30 -12 -16 -21 6 -4 8 -16 4
-27 -5 -17 -3 -19 15 -13 19 6 21 2 22 -42 1 -45 1 -46 10 -18 11 37 2 108
-18 132 -13 16 -14 16 -9 1z"/>
<path d="M5260 1769 c0 -5 5 -7 10 -4 6 3 10 8 10 11 0 2 -4 4 -10 4 -5 0 -10
-5 -10 -11z"/>
<path d="M9787 3462 c-10 -10 -17 -24 -17 -31 0 -7 -4 -10 -9 -6 -15 9 -10
-58 6 -83 8 -13 30 -30 48 -38 45 -19 51 -18 32 4 -11 12 -19 45 -23 95 -4 42
-10 77 -14 77 -4 0 -14 -8 -23 -18z"/>
<path d="M6634 2975 c8 -8 17 -15 20 -15 3 0 3 7 0 15 -4 8 -13 15 -21 15 -12
0 -12 -2 1 -15z"/>
<path d="M7192 2904 c-7 -8 -10 -19 -7 -25 4 -6 -1 -17 -11 -24 -12 -9 -15
-18 -9 -22 12 -9 31 -48 40 -80 5 -18 14 -23 39 -23 18 0 36 -3 40 -7 14 -15
36 -10 42 9 16 50 -25 152 -68 167 -15 6 -28 7 -28 4 0 -3 -6 -1 -12 5 -9 7
-17 6 -26 -4z"/>
<path d="M7051 2871 c-6 -11 -11 -26 -11 -35 0 -8 -6 -16 -12 -18 -7 -3 3 -10
21 -16 26 -9 31 -9 23 1 -10 12 -9 29 3 58 9 25 -12 33 -24 10z"/>
<path d="M6472 2785 c0 -16 2 -22 5 -12 2 9 2 23 0 30 -3 6 -5 -1 -5 -18z"/>
<path d="M6471 2684 c0 -11 3 -14 6 -6 3 7 2 16 -1 19 -3 4 -6 -2 -5 -13z"/>
<path d="M6874 2626 c-9 -10 -6 -20 13 -44 33 -43 53 -42 53 3 0 24 -5 35 -15
35 -8 0 -15 5 -15 10 0 14 -23 12 -36 -4z"/>
<path d="M7232 2593 c-10 -4 -10 -9 4 -24 13 -14 21 -16 35 -8 27 14 24 39 -3
38 -13 0 -29 -3 -36 -6z"/>
<path d="M6531 2398 c1 -24 3 -27 6 -10 2 12 7 20 11 18 4 -2 13 2 20 10 11
12 9 14 -13 14 -22 0 -25 -4 -24 -32z"/>
<path d="M6700 2092 c0 -5 -17 -26 -37 -47 -38 -38 -38 -39 7 -17 28 14 53 59
39 68 -5 3 -9 1 -9 -4z"/>
<path d="M8050 3051 c0 -5 9 -11 21 -14 16 -4 18 -3 8 9 -13 16 -29 19 -29 5z"/>
<path d="M2130 2562 c0 -6 9 -12 20 -15 11 -3 20 -3 20 -1 0 2 -9 8 -20 14
-11 6 -20 7 -20 2z"/>
<path d="M7691 1804 c0 -11 3 -14 6 -6 3 7 2 16 -1 19 -3 4 -6 -2 -5 -13z"/>
<path d="M7702 1760 c0 -14 2 -19 5 -12 2 6 2 18 0 25 -3 6 -5 1 -5 -13z"/>
</g>
</svg>
